<svg width="64" height="64" viewBox="0 0 24 24" fill="none" xmlns="http://www.w3.org/2000/svg">
  <path d="M12 8a4 4 0 100 8 4 4 0 000-8zm8.1 2.5l-1.3-.4a6.97 6.97 0 00-.5-1.1l.7-1.1a1 1 0 00-.2-1.3l-1.5-1.5a1 1 0 00-1.3-.2l-1.1.7a7.02 7.02 0 00-1.1-.5L13.5 4a1 1 0 00-1.1 0l-.4 1.3c-.4.2-.8.5-1.1.5l-1.1-.7a1 1 0 00-1.3.2L7 6.3a1 1 0 00-.2 1.3l.7 1.1c-.3.4-.6.7-.5 1.1L4 10.5a1 1 0 000 1.1l1.3.4c.1.4.4.8.5 1.1l-.7 1.1a1 1 0 00.2 1.3l1.5 1.5c.3.3.8.3 1.3.2l1.1-.7c.4.1.7.4 1.1.5l.4 1.3a1 1 0 001.1 0l.4-1.3c.4-.1.8-.4 1.1-.5l1.1.7a1 1 0 001.3-.2l1.5-1.5a1 1 0 00.2-1.3l-.7-1.1c.1-.4.5-.7.5-1.1l1.3-.4a1 1 0 000-1.1z" fill="#888"/>
</svg>
